<?xml version="1.0" encoding="UTF-8"?>
<svg id="Camada_1" xmlns="http://www.w3.org/2000/svg" version="1.1" viewBox="0 0 1080 952.23">
  <!-- Generator: Adobe Illustrator 29.4.0, SVG Export Plug-In . SVG Version: 2.1.0 Build 152)  -->
  <defs>
    <style>
      .st0 {
        fill: #fff;
      }

      .st1 {
        fill: #065233;
      }
    </style>
  </defs>
  <g>
    <path class="st1" d="M195.54,951.98c-4.69,0-8.62-2.19-11.36-6.33-1.84-3.05-2.28-6.64-1.2-9.83,1.01-2.99,3.27-5.38,6.22-6.55l86.29-42.52c11.39-5.1,20.58-15.27,24.58-27.21,3.74-11.21,2.82-24.08-2.57-36.25l-104.34-212.5c-5.1-11.39-15.28-20.58-27.21-24.58-4.5-1.5-9.3-2.26-14.25-2.26-7.26,0-14.87,1.67-22,4.84l-86.28,42.51c-1.96,1.18-4.13,1.8-6.29,1.8-4.5,0-8.48-2.67-10.12-6.8-1.86-3.1-2.3-6.68-1.23-9.88,1.01-2.99,3.27-5.38,6.22-6.55l86.29-42.52c9.58-5.15,20.6-7.87,31.9-7.87,8.03,0,15.86,1.35,23.29,4,9.14,3.43,16.82,8.04,25.68,15.4.05.04.1.06.16.06.04,0,.09-.01.13-.04,54.47-32.7,113.91-50.71,167.37-50.71,47.03,0,88.56,13.59,123.43,40.38l9.01,6.44c32.2,25.54,52.27,39.99,90.29,39.99h95.28c29.78,0,56.21,22.13,62.84,52.62.01.07.05.12.11.16.04.03.09.04.13.04.02,0,.04,0,.06,0,85.3-21.35,148.08-44.53,191.93-70.86.01,0,.02-.01.03-.02,18.63-11.01,39.73-17.33,57.89-17.33,15.62,0,28.58,4.51,38.53,13.39,14.23,14.28,20.43,31.13,17.93,48.73-3.96,25.76-25.38,54.68-63.66,85.96-30.11,24.61-60.92,42.67-71.05,48.61-2.18,1.28-2.88,1.69-3.01,1.82-108.13,57.23-236.35,87.51-370.73,87.51-75.6,0-149.24-8.66-218.87-25.75-.02,0-.04,0-.06,0-.06,0-.11.02-.15.05-.06.05-.1.12-.1.2,0,8.92-1.3,18-3.86,27-5.07,17.63-17.5,31.83-35.94,41.04l-86.27,42.51c-1.25,1.28-3.8,1.28-5.02,1.28ZM320.05,814.4c0,.11.08.21.19.24,74.11,19.1,149.96,28.79,225.43,28.79,130.67,0,254.94-29.12,359.4-84.19,36.07-19.32,117.33-76.02,123.78-118.65,0-.02,0-.05,0-.08,1.33-11.86-1.51-19.58-10.44-28.46-5.45-5.03-12.89-7.57-22.11-7.57-15.62,0-32.92,7.22-43.9,13.98-46.97,28.42-113.92,53.26-204.67,75.93-.09.02-.16.09-.18.19-6.54,28.78-34.15,51.32-62.84,51.32h-204.74c-7.55,0-12.63-5.08-12.63-12.63s6.55-12.63,12.63-12.63h207.32c20.66,0,40.19-19.53,40.19-40.19,0-22.16-18.03-40.19-40.19-40.19h-95.28c-48.56,0-76.19-21.87-105.44-45.02l-9.01-6.45c-30.51-22.99-67.42-34.65-109.69-34.65-48.71,0-104.12,16.38-152.03,44.95-.08.04-.12.13-.12.21v1.31s0,.08.03.11l104.31,212.44v1.25Z"/>
    <path class="st0" d="M366.81,527.97v.5c46.97,0,88.45,13.57,123.29,40.34l8.99,6.42c32.25,25.58,52.35,40.05,90.46,40.05h95.28c29.67,0,55.99,22.05,62.6,52.43.03.13.11.25.22.32.08.05.17.08.26.08.04,0,.08,0,.12-.01,85.33-21.36,148.13-44.55,192-70.89.02,0,.03-.02.05-.03,18.59-10.99,39.63-17.28,57.74-17.28,15.55,0,28.46,4.48,38.34,13.31,14.18,14.24,20.36,31.02,17.87,48.52-3.95,25.69-25.34,54.56-63.56,85.81-30.1,24.6-60.9,42.66-71.02,48.59-2.15,1.26-2.77,1.63-2.99,1.8-54.23,28.7-113.48,50.72-176.12,65.46-62.21,14.63-127.65,22.05-194.51,22.05-75.58,0-149.2-8.66-218.81-25.74-.04,0-.08-.01-.12-.01-.11,0-.22.04-.31.11-.12.09-.19.24-.19.39,0,8.89-1.3,17.95-3.85,26.93-5.05,17.56-17.44,31.7-35.81,40.89l-86.27,42.51c-.05.03-.1.06-.14.1-1.11,1.15-3.58,1.15-4.77,1.15-4.6,0-8.46-2.15-11.14-6.2-1.8-3-2.24-6.51-1.18-9.63.98-2.92,3.2-5.25,6.11-6.41l86.26-42.5c11.46-5.13,20.7-15.36,24.72-27.36,3.76-11.27,2.84-24.21-2.59-36.45l-104.33-212.48c-5.13-11.46-15.36-20.7-27.36-24.72-4.53-1.51-9.35-2.27-14.33-2.27-7.29,0-14.94,1.68-22.12,4.87l-86.31,42.53c-1.91,1.15-4.03,1.75-6.14,1.75-4.4,0-8.28-2.61-9.89-6.64,0-.03-.02-.05-.04-.07-1.8-3-2.24-6.51-1.18-9.63.98-2.92,3.2-5.25,6.11-6.41l86.29-42.52c9.53-5.12,20.52-7.83,31.78-7.83,8,0,15.81,1.34,23.2,3.99,9.12,3.43,16.78,8.02,25.61,15.36.09.08.21.12.32.12.09,0,.18-.02.26-.07,54.43-32.68,113.82-50.67,167.24-50.67v-.5M319.8,813.2v1.19c0,.23.15.43.38.48,74.13,19.11,149.99,28.79,225.49,28.79,130.7,0,255.02-29.12,359.52-84.22,36.11-19.34,117.44-76.11,123.91-118.84,0-.04,0-.07,0-.11,1.33-11.93-1.53-19.7-10.53-28.65-5.49-5.06-12.99-7.63-22.27-7.63-15.68,0-33.02,7.24-44.02,14.01-46.95,28.41-113.88,53.24-204.6,75.9-.18.05-.32.19-.37.37-3.13,13.75-11.18,26.57-22.68,36.1-11.68,9.69-25.86,15.02-39.92,15.02h-204.74c-7.52,0-12.38-4.86-12.38-12.38s6.43-12.38,12.38-12.38h207.31c20.79,0,40.44-19.65,40.44-40.44,0-22.3-18.14-40.44-40.44-40.44h-95.28c-48.47,0-76.07-21.84-105.3-44.98l-9-6.43c-30.56-23.03-67.52-34.7-109.84-34.7-48.75,0-104.21,16.4-152.16,44.99-.15.09-.24.25-.24.43v1.31c0,.08.02.15.05.22l104.28,212.39M366.81,527.97c-59.16,0-119.14,21.71-167.5,50.74-7.75-6.44-15.44-11.57-25.76-15.44-7.49-2.68-15.44-4.02-23.38-4.02-11.13,0-22.23,2.63-32.01,7.89l-86.27,42.51c-6.44,2.57-9,10.31-5.13,16.75,1.74,4.37,5.87,6.96,10.35,6.96,2.12,0,4.33-.58,6.4-1.82l86.27-42.51c7.01-3.11,14.5-4.81,21.9-4.81,4.81,0,9.59.72,14.17,2.25,11.57,3.87,21.88,12.88,27.07,24.45l104.33,212.49c5.13,11.57,6.44,24.45,2.57,36.07-3.87,11.57-12.88,21.88-24.45,27.07l-86.27,42.51c-6.44,2.57-9,10.31-5.13,16.75,2.57,3.87,6.44,6.44,11.57,6.44,1.31,0,3.87,0,5.13-1.31l86.27-42.51c18.01-9,30.89-23.19,36.07-41.2,2.57-9,3.87-18.01,3.87-27.07,73.4,18.01,146.79,25.76,218.93,25.76,133.91,0,261.44-29.63,370.91-87.58,1.31-1.31,127.47-69.52,137.78-136.54,2.57-18.01-3.87-34.76-18.01-48.95-10.77-9.62-24.4-13.46-38.69-13.46-20.1,0-41.49,7.59-58.04,17.38h0c-45.07,27.07-109.47,50.21-191.86,70.84-6.44-29.63-32.2-52.82-63.08-52.82h-95.28c-38.63,0-59.26-15.44-90.15-39.94l-9-6.44c-37.52-28.83-80.33-40.43-123.58-40.43h0ZM545.67,843.17c-74.49,0-150.53-9.49-225.37-28.78v-1.31l-104.33-212.49v-1.31c42.79-25.52,97.85-44.91,151.9-44.91,38.65,0,76.78,9.92,109.54,34.6l9,6.44c30.89,24.45,57.95,45.07,105.59,45.07h95.28c21.88,0,39.94,18.01,39.94,39.94,0,20.63-19.32,39.94-39.94,39.94h-207.31c-6.44,0-12.88,5.13-12.88,12.88s5.13,12.88,12.88,12.88h204.74c29.63,0,56.64-23.19,63.08-51.51,87.58-21.88,155.85-46.38,204.74-75.96,10.89-6.7,28.31-13.94,43.77-13.94,8.32,0,16.07,2.1,21.94,7.5,9.06,9,11.67,16.75,10.36,28.32h0c-6.44,42.51-87.58,99.15-123.65,118.47-105.39,55.57-229.99,84.16-359.28,84.16h0Z"/>
  </g>
  <g>
    <path class="st1" d="M704.07,465.12c-46.2,0-91.2-20.62-123.47-56.56-3.3-3.3-7.15-8.1-10.29-12.85-11.32-15.66-19.76-32.56-24.42-48.88-.03-.1-.12-.18-.23-.18-51.81-2.71-102.89-15.26-151.82-37.27-.02-.01-.04-.03-.06-.04-3.23-1.29-5.79-3.89-7.02-7.14-1.27-3.35-1-7.11.76-10.57,1.77-4.43,6.24-7.29,11.39-7.29,1.74,0,3.44.33,5.04.97,53.37,23.73,105.92,35.76,156.16,35.76,92.22,0,178.57-38.67,263.96-118.21,2.29-1.71,5.18-2.65,8.12-2.65,3.6,0,6.99,1.41,9.54,3.96,3.97,5.33,3.42,12.93-1.31,17.66-42.84,39.64-87.07,70.23-131.45,90.89-44.24,20.6-90.08,32.02-136.26,33.95-.08,0-.15.04-.19.1s-.06.14-.04.22c3.52,11.86,9.59,23.58,18.05,34.84l.42.62c2.53,3.74,4.91,7.28,7.36,9.72,27.18,30.75,65.61,48.4,105.42,48.4h.01c29.08,0,56.7-9.86,77.77-27.76,163.07-140.13,165.21-308.01,158.55-373.69,0-.1-.08-.18-.17-.21-.03,0-.05-.01-.08-.01-.07,0-.13.03-.18.08-93.15,96.99-176.84,114.37-244.08,128.34l-1.79.37-2.62.57c-27.96,6.07-52.1,11.31-72.15,21.33-29.23,14-48.95,41.97-55.52,78.76-1.17,5.78-6.41,10.31-11.91,10.31-.66,0-1.33-.07-1.98-.2-6.62-1.34-11.35-7.84-10.12-13.89,7.81-44.14,32.01-78.38,68.13-96.41,21.85-12.13,46.88-17.33,75.85-23.34l7.96-1.65c68.24-14.18,153.16-31.83,247.22-138.61,2.72-2.72,6.21-4.28,9.58-4.28,1.07,0,2.09.16,3.03.48,3.28,1.06,7.47,3.46,8.84,8.83,0,.06.06.42.27,1.51,4.04,21.27,11.97,78.55-1.61,150.97-8.63,46.01-24.43,90.21-46.98,131.39-27.81,50.79-66.11,97.3-113.83,138.25-26.61,21.56-59.95,33.44-93.86,33.44Z"/>
    <path class="st0" d="M948.22.5c1.04,0,2.04.16,2.96.47,3.21,1.04,7.31,3.38,8.66,8.61.02.18.09.55.27,1.54,4.04,21.25,11.96,78.5-1.61,150.88-8.62,45.98-24.42,90.16-46.95,131.32-27.79,50.76-66.07,97.25-113.77,138.17-26.57,21.53-59.85,33.39-93.71,33.39-22.72,0-44.91-4.8-65.96-14.28-21.65-9.75-40.94-23.95-57.34-42.22-3.28-3.28-7.12-8.07-10.26-12.82-11.3-15.63-19.73-32.5-24.37-48.79-.06-.21-.24-.35-.45-.36-51.77-2.71-102.81-15.24-151.71-37.24-.03-.02-.06-.04-.09-.05-3.16-1.26-5.67-3.81-6.88-7-1.24-3.28-.98-6.97.77-10.41,1.72-4.32,6.1-7.11,11.15-7.11,1.71,0,3.37.32,4.93.94,53.41,23.75,105.99,35.79,156.27,35.79,92.28,0,178.67-38.68,264.11-118.26,2.27-1.68,5.1-2.61,7.97-2.61,3.52,0,6.83,1.37,9.33,3.86,3.89,5.26,3.35,12.7-1.27,17.31-42.83,39.63-87.04,70.2-131.4,90.85-44.21,20.58-90.02,31.99-136.17,33.92-.15,0-.3.08-.39.21-.09.13-.12.29-.07.43,3.53,11.89,9.62,23.64,18.07,34.9l.42.62c2.53,3.76,4.93,7.3,7.37,9.74,27.24,30.82,65.74,48.49,105.63,48.49,29.14,0,56.81-9.88,77.93-27.82,163.16-140.2,165.29-308.19,158.64-373.9-.02-.19-.15-.36-.33-.42-.05-.02-.11-.03-.16-.03-.13,0-.26.05-.36.15-41.43,43.13-84.42,74.27-131.42,95.19-40.86,18.19-78.94,26.1-112.53,33.07l-1.79.37-2.61.57c-27.98,6.07-52.14,11.32-72.2,21.35-29.31,14.03-49.08,42.07-55.66,78.93-1.15,5.67-6.28,10.12-11.67,10.12-.65,0-1.3-.07-1.93-.19-6.49-1.32-11.13-7.67-9.92-13.61,3.85-21.74,11.73-41.17,23.43-57.75,11.73-16.62,26.72-29.57,44.59-38.49,21.81-12.11,46.82-17.3,75.78-23.31l5.22-1.09,2.72-.57c68.27-14.19,153.24-31.84,247.34-138.67,2.68-2.68,6.11-4.22,9.42-4.22M948.22,0c-3.26,0-6.87,1.46-9.77,4.36-95.28,108.16-181.61,124.91-249.81,139.1-30.89,6.44-57.95,11.57-81.14,24.45-36.07,18.01-60.52,52.82-68.27,96.59-1.31,6.44,3.87,12.88,10.31,14.19.68.14,1.36.2,2.03.2,5.71,0,10.99-4.75,12.16-10.52,6.44-36.07,25.76-64.39,55.39-78.58,20.63-10.31,45.07-15.44,74.7-21.88,68.27-14.19,151.98-30.89,246-128.78,6.39,63.08,6.39,231.81-158.47,373.47-21.92,18.63-49.45,27.7-77.6,27.7-38,0-77.14-16.51-105.26-48.32-2.57-2.57-5.13-6.44-7.75-10.31-7.75-10.31-14.19-21.88-18.01-34.76,92.71-3.87,181.61-45.07,267.88-124.91,5.13-5.13,5.13-12.88,1.31-18.01-2.75-2.75-6.26-4.03-9.71-4.03-2.98,0-5.92.95-8.3,2.72-84.67,78.87-172.02,118.15-263.79,118.15-50.58,0-102.51-11.93-156.07-35.75-1.66-.66-3.41-.98-5.14-.98-4.96,0-9.71,2.64-11.62,7.42-3.92,7.75-.05,15.49,6.39,18.06h-.02c51.51,23.19,103.03,34.76,151.98,37.33,5.13,18.01,14.19,34.76,24.45,48.95,2.57,3.87,6.44,9,10.31,12.88,33.5,37.33,78.58,56.64,123.65,56.64,33.5,0,66.96-11.57,94.02-33.5C1015.71,245.18,960.34,12.06,960.34,9.5c-1.31-5.13-5.13-7.75-9-9C950.36.16,949.31,0,948.22,0h0Z"/>
  </g>
</svg>