<?xml version="1.0" encoding="UTF-8"?>
<svg id="Camada_1" xmlns="http://www.w3.org/2000/svg" version="1.1" viewBox="0 0 1080 952.23">
  <!-- Generator: Adobe Illustrator 29.4.0, SVG Export Plug-In . SVG Version: 2.1.0 Build 152)  -->
  <defs>
    <style>
      .st0 {
        fill: #065233;
      }
    </style>
  </defs>
  <path class="st0" d="M540.26,226.8h-.51c-46.83.13-90.86,18.54-123.97,51.84-33.11,33.3-51.27,77.42-51.14,124.25.27,96.55,79.05,175.11,175.6,175.11,96.85-.24,175.62-79.24,175.6-176.1-.13-46.9-18.52-90.95-51.78-124.02-33.13-32.94-77.1-51.08-123.81-51.08ZM699.43,401.9c.02,42.56-16.52,82.61-46.57,112.76-30.05,30.15-70.04,46.81-112.61,46.93h-.52c-42.45,0-82.42-16.48-112.54-46.41-30.25-30.06-46.99-70.11-47.13-112.76-.14-42.65,16.35-82.8,46.41-113.06,30.06-30.26,70.11-46.99,112.76-47.13h.52c42.45,0,82.42,16.48,112.54,46.41,30.26,30.06,46.99,70.11,47.13,112.76v.5Z"/>
  <path class="st0" d="M794.06,723.85l-49.13-151.36.64-1.13c7.98-14.16,12.19-30.24,12.18-46.49-.06-20.74,8.32-41.04,23-55.69,36.85-37.09,36.84-97.46,0-134.56-14.67-14.65-23.05-34.95-22.99-55.69,0-52.34-42.57-95.02-94.92-95.15h-.19c-20.63,0-40.78-8.41-55.3-23.06-17.84-17.92-41.61-27.82-66.9-27.87h-.2c-25.22,0-48.95,9.8-66.82,27.6l-.28.28c-14.51,14.65-34.66,23.05-55.3,23.05h-.22c-52.32.13-94.89,42.82-94.88,95.16.06,20.74-8.32,41.04-23,55.69-36.85,37.09-36.84,97.46.01,134.56,14.67,14.65,23.05,34.95,22.99,55.69,0,22.92,8.3,45.06,23.38,62.34l1.32,1.51-60.5,119.18c-.99,1.95-1.16,4.18-.48,6.26.68,2.09,2.13,3.78,4.08,4.77.88.45,1.84.73,2.82.84l113.17,12.44.75.83,75.69,83.65c1.81,2,4.49,2.98,7.18,2.63,2.68-.36,5-2.01,6.22-4.42l48.83-96.29,25.27,78.05c.83,2.57,2.88,4.57,5.47,5.34,2.58.78,5.43.19,7.5-1.47l88.75-71.52,113.66,5.56c2.71.12,5.27-1.1,6.93-3.23,1.63-2.13,2.11-4.94,1.28-7.5ZM487.14,796.83l-70.53-77.94c-1.35-1.49-3.19-2.43-5.19-2.65l-104.46-11.48,53.01-104.42,2.8,2.02c16.09,11.56,35.07,17.67,54.88,17.67h.19c20.63,0,40.8,8.41,55.32,23.06,14.62,14.71,33.99,24.28,54.56,26.95l1.86.24,8.48,26.19-50.9,100.36ZM540.43,654.55h-.36c-20.64,0-40.8-8.41-55.32-23.06-17.55-17.71-41.93-27.87-66.88-27.87h-.23c-43.3-.12-78.51-35.45-78.49-78.75h0c.08-25.06-10.05-49.58-27.78-67.27-14.81-14.91-22.96-34.69-22.96-55.69s8.15-40.78,22.95-55.68c17.74-17.7,27.87-42.22,27.79-67.27-.02-43.3,35.18-78.63,78.47-78.75h.25c24.95,0,49.32-10.16,66.87-27.87,14.76-14.83,34.4-23.02,55.32-23.06h.18c20.85,0,40.46,8.1,55.24,22.81l.25.25c17.55,17.72,41.92,27.88,66.86,27.88h.24c43.32.12,78.52,35.45,78.5,78.74-.08,25.06,10.05,49.58,27.78,67.27,14.81,14.91,22.96,34.69,22.96,55.69s-8.15,40.78-22.95,55.68c-17.74,17.7-27.87,42.22-27.79,67.27.02,43.3-35.19,78.63-78.49,78.75h-.23c-24.95,0-49.33,10.16-66.88,27.87-14.52,14.65-34.68,23.06-55.31,23.06ZM669.86,712.46c-2.01-.12-3.97.53-5.53,1.8l-81.91,66.01-35.46-109.51,3.63-.39c21.43-2.29,41.59-11.98,56.76-27.28,14.52-14.65,34.69-23.06,55.32-23.06h.21c25.2,0,48.9-9.81,66.73-27.62l3.42-3.41,41.74,128.6-104.91-5.14Z"/>
  <path class="st0" d="M501.25,446.44l-42.37-42.51c-1.87-1.88-4.36-2.92-7.02-2.92-2.66,0-5.15,1.03-7.02,2.9-3.88,3.86-3.88,10.16-.02,14.04l49.39,49.55c1.88,1.88,4.38,2.92,7.04,2.92,2.66,0,5.16-1.03,7.04-2.91l127.41-127.8c3.86-3.88,3.85-10.17-.02-14.04-1.87-1.87-4.36-2.9-7.01-2.9-2.67,0-5.16,1.04-7.03,2.92l-120.39,120.75Z"/>
  <path class="st0" d="M1009.74,474.94c-.7-258.35-211.45-468.53-469.78-468.53h-1.19c-125.26.3-243.03,49.51-331.62,138.56-88.58,89.04-137.2,207.06-136.89,332.31.63,258.35,211.34,468.53,469.7,468.53h1.27c125.23-.3,242.99-49.51,331.6-138.57,88.6-89.05,137.22-207.06,136.92-332.31ZM541.99,924.54l-.35.08h-1.77c-113.09,0-221.26-42.49-304.59-119.65l-3.98-3.68.14-.14c-5.1-4.84-10.13-9.85-15-14.92l-.12.13-3.72-3.98c-77.88-83.13-120.94-191.47-121.25-305.06-.11-46.12,6.81-91.65,20.54-135.34l.4-1.27c.33-1.04.66-2.07,1-3.11.37-1.15.76-2.31,1.14-3.46l.32-.95c13.79-41.02,33.53-79.82,58.68-115.31l.58-.82c.71-1,1.43-2,2.14-2.99.67-.93,1.35-1.85,2.02-2.77l.77-1.04c24.07-32.59,52.43-61.81,84.28-86.86.69-.55,1.39-1.09,2.09-1.64l1.52-1.18c52.31-40.4,111.4-68.09,175.63-82.3l1.37-.3c1.01-.22,2.02-.44,3.02-.65,1.16-.25,2.32-.49,3.49-.72l.86-.17c28.69-5.78,58.16-8.75,87.6-8.83h1.12c113.09,0,221.26,42.49,304.59,119.65l3.97,3.69-.1.1c5.1,4.84,10.13,9.85,15,14.92l.02-.02,1.96,1.96,1.81,1.93c64.68,69.04,105.31,154.83,117.48,248.08l.09.73c.2,1.56.39,3.12.58,4.67l.14,1.22c.16,1.4.32,2.81.47,4.22l.15,1.47c.14,1.33.27,2.67.39,4.01l.15,1.61c.12,1.3.23,2.6.33,3.9l.13,1.68c.1,1.29.19,2.59.28,3.88l.11,1.69c.08,1.3.16,2.61.23,3.92l.09,1.64c.07,1.34.13,2.68.19,4.02l.07,1.56c.06,1.41.1,2.82.15,4.23l.04,1.35c.04,1.56.08,3.12.1,4.68l.02.92c.03,1.87.05,3.73.05,5.59,0,1.2,0,2.32-.01,3.43l-.02,2.78c-.08,7.17-.33,14.4-.74,21.5l-.02.27c-.09,1.52-.19,3.03-.29,4.54l-.07,1.04c-.08,1.13-.17,2.27-.26,3.4l-.17,2.2c-.06.71-.13,1.42-.19,2.13l-.14,1.59c-.06.63-.11,1.27-.17,1.9l-.24,2.38c-.11,1.09-.22,2.18-.34,3.27l-.11.97c-11.25,101.17-55.5,193.13-127.94,265.94-84.37,84.8-196.51,131.78-315.76,132.28Z"/>
</svg>